PathFileType	4	(X/Y/Z)	SUBJ32_3_walk_RCNL2025.trc
DataRate	CameraRate	NumFrames	NumMarkers	Units	OrigDataRate	OrigDataStartFrame	OrigNumFrames
100	100	9	25	mm	100	148	393
Frame#	Time	R_Shoulder			L_Shoulder			C7			J_Notch			R_Elbow			L_Elbow			R_Wrist			L_Wrist			R_Asis			L_Asis			Sacral			Thoracic			Sternum			R_Thigh_Lateral			R_Knee_Lateral			R_Shank_Lateral			R_Ankle_Lateral			R_Heel			R_Toe			L_Thigh_Lateral			L_Knee_Lateral			L_Shank_Lateral			L_Ankle_Lateral			L_Heel			L_Toe		
		X1	Y1	Z1	X2	Y2	Z2	X3	Y3	Z3	X4	Y4	Z4	X5	Y5	Z5	X6	Y6	Z6	X7	Y7	Z7	X8	Y8	Z8	X9	Y9	Z9	X10	Y10	Z10	X11	Y11	Z11	X12	Y12	Z12	X13	Y13	Z13	X14	Y14	Z14	X15	Y15	Z15	X16	Y16	Z16	X17	Y17	Z17	X18	Y18	Z18	X19	Y19	Z19	X20	Y20	Z20	X21	Y21	Z21	X22	Y22	Z22	X23	Y23	Z23	X24	Y24	Z24	X25	Y25	Z25
148	1.47000000	-68.238457	1350.749390	96.707840	-85.460480	1370.682495	-274.218170	-97.589745	1441.991333	-72.530022	19.971443	1335.288208	-89.254311	-129.569275	1016.385559	187.866867	-168.931015	1062.153076	-381.407288	-49.729505	780.871613	205.208084	-104.690681	811.527985	-412.078690	-0.554488	908.884583	14.389540	-4.536733	896.151550	-236.435715	-202.749329	946.281189	-106.476311	-203.943756	1206.628418	-92.271774	87.562042	1112.665649	-103.538689	-68.314331	542.106201	83.361977	-54.074619	446.402588	37.641125	-64.171623	284.341858	99.815269	-74.639153	64.105659	-22.672779	-126.697594	56.602570	-74.530663	56.905979	49.135540	-57.497498	-21.869940	561.703430	-351.145996	-6.392729	471.182465	-316.125519	-138.646988	303.756836	-337.924011	-287.048462	187.587265	-250.197495	-331.522217	218.559937	-207.314789	-211.231842	82.142014	-215.154846
149	1.48000000	-59.145679	1352.268066	96.711517	-76.294945	1371.365845	-274.296417	-88.265289	1443.105591	-72.724564	29.272038	1336.494751	-89.169075	-117.141388	1017.415894	188.639923	-161.682938	1062.751709	-379.996796	-33.028127	783.723541	205.707680	-100.237373	811.340515	-409.686951	8.394973	909.632446	15.607841	6.131747	897.560791	-235.291473	-193.133026	947.339783	-106.952934	-194.431351	1207.570679	-92.299393	96.990273	1113.846191	-102.509758	-64.986855	542.689514	83.017647	-52.239822	446.690857	37.073750	-63.773270	284.586975	99.265221	-74.522766	64.249008	-22.977623	-126.545387	56.763111	-74.937798	56.983871	49.055244	-57.495346	-5.330397	564.062012	-350.064728	11.660490	473.721558	-314.590332	-116.076004	302.565582	-336.891754	-261.578430	181.789032	-249.763535	-307.751343	210.572556	-206.769455	-179.962479	80.975555	-215.073029
150	1.49000000	-50.096886	1353.700562	96.650978	-67.071983	1371.899292	-274.430267	-79.001396	1444.070801	-72.989891	38.533203	1337.545166	-89.117760	-104.953705	1018.409363	189.355408	-154.427689	1063.217041	-378.579529	-16.411772	786.640320	206.135147	-95.687748	811.066833	-407.321793	17.351454	910.217285	16.732008	16.649729	898.779724	-234.209412	-183.551117	948.243713	-107.463066	-184.960281	1208.349365	-92.384583	106.365555	1114.865723	-101.460159	-61.625072	543.248169	82.643600	-50.393433	446.985962	36.457870	-63.183983	284.863190	98.706161	-74.395050	64.420616	-23.301828	-126.356583	56.940983	-75.374397	57.052216	48.945801	-57.512760	10.906054	566.335693	-348.968628	29.303333	476.138580	-312.970367	-93.400055	300.879761	-335.769257	-235.499207	175.190781	-249.128448	-283.085510	201.497513	-205.736038	-148.167480	79.395538	-215.181335
151	1.50000000	-41.085255	1355.014160	96.528687	-57.789474	1372.267090	-274.620300	-69.783791	1444.869995	-73.318886	47.766075	1338.423950	-89.098045	-93.049309	1019.353333	190.029984	-147.143692	1063.535034	-377.164276	0.103134	789.581146	206.494446	-91.026300	810.687500	-404.991623	26.260775	910.628723	17.739563	27.034105	899.783020	-233.206497	-174.004471	948.981628	-108.007576	-175.525116	1208.955811	-92.527077	115.705475	1115.704224	-100.396461	-58.185387	543.771545	82.263626	-48.490849	447.281769	35.820534	-62.397850	285.167450	98.154770	-74.260567	64.610413	-23.641340	-126.123428	57.134220	-75.835182	57.103737	48.813236	-57.537422	26.806814	568.465942	-347.858704	46.516197	478.402679	-311.288544	-70.668068	298.789734	-334.565918	-208.772079	167.916168	-248.329010	-257.508118	191.484146	-204.308609	-115.911545	77.458221	-215.479675
152	1.51000000	-32.103733	1356.179199	96.345459	-48.450684	1372.455444	-274.866425	-60.596432	1445.491333	-73.708870	56.980114	1339.117065	-89.109749	-81.416428	1020.226685	190.675766	-139.806534	1063.691772	-375.764587	16.503572	792.505890	206.788765	-86.235004	810.186859	-402.704758	35.090733	910.858459	18.618858	37.303074	900.553528	-232.296265	-164.492889	949.546936	-108.583565	-166.120697	1209.385742	-92.726646	125.027031	1116.346191	-99.331078	-54.624432	544.248474	81.893402	-46.495884	447.569824	35.180836	-61.446854	285.493103	97.619019	-74.123413	64.809174	-23.994253	-125.846169	57.339035	-76.316010	57.136993	48.672855	-57.558590	42.342136	570.395569	-346.741150	63.275593	480.485321	-309.568176	-47.935593	296.396912	-333.301636	-181.358307	160.091293	-247.408798	-231.011444	180.727737	-202.629547	-83.246628	75.225830	-215.932556
153	1.52000000	-23.146322	1357.171753	96.101929	-39.061855	1372.453369	-275.167236	-51.420349	1445.927368	-74.161072	66.182610	1339.612549	-89.154083	-69.999847	1021.004333	191.300766	-132.391327	1063.675415	-374.397217	32.780664	795.376648	207.020691	-81.293423	809.553131	-400.469376	43.836903	910.903748	19.367830	47.471016	901.081055	-231.489090	-155.013947	949.936523	-109.185951	-156.742477	1209.639282	-92.981781	134.341766	1116.780518	-98.281807	-50.904861	544.668274	81.540924	-44.379196	447.839752	34.550838	-60.376415	285.831421	97.102287	-73.986076	65.009071	-24.360792	-125.533615	57.551174	-76.812935	57.155991	48.541077	-57.569038	57.489899	572.078613	-345.630219	79.555557	482.358673	-307.831757	-25.259592	293.793091	-332.002380	-153.230896	151.839493	-246.405365	-203.597595	169.432693	-200.835876	-50.210781	72.777542	-216.478302
154	1.53000000	-14.207912	1357.974976	95.799919	-29.630346	1372.254272	-275.520081	-42.234005	1446.174927	-74.677094	75.379646	1339.901367	-89.234604	-58.725502	1021.664917	191.910538	-124.875237	1063.477417	-373.080597	48.927570	798.161041	207.192970	-76.178759	808.776978	-398.296204	52.512589	910.767151	19.991076	57.548534	901.361267	-230.791306	-145.563766	950.150146	-109.810020	-147.386795	1209.720703	-93.289047	143.653351	1116.999878	-97.270576	-47.000580	545.021545	81.209190	-42.115658	448.080078	33.938583	-59.221622	286.171906	96.606575	-73.849525	65.204590	-24.742706	-125.202667	57.768486	-77.322472	57.170929	48.428429	-57.567978	72.237808	573.484558	-344.547089	95.329308	483.994965	-306.099915	-2.695541	291.048248	-330.694000	-124.380966	143.279770	-245.344620	-175.281219	157.784073	-199.022629	-16.831083	70.213074	-217.040298
155	1.54000000	-5.281132	1358.578369	95.441635	-20.163908	1371.855591	-275.921509	-33.016720	1446.233765	-75.255348	84.580414	1339.980103	-89.357712	-47.518532	1022.194275	192.509308	-117.239601	1063.093994	-371.832977	64.936634	800.834259	207.308876	-70.867350	807.851227	-396.197983	61.138138	910.454651	20.497101	67.543556	901.395142	-230.204453	-136.138702	950.189148	-110.453339	-138.049820	1209.638306	-93.643257	152.960709	1117.001099	-96.321556	-42.896587	545.300598	80.898941	-39.680313	448.279602	33.350731	-57.991077	286.502045	96.133987	-73.713280	65.393623	-25.141649	-124.876053	57.994732	-77.843002	57.199387	48.338017	-57.562710	86.580261	574.595459	-343.515228	110.566795	485.367065	-304.392731	19.703634	288.208618	-329.397827	-94.818573	134.531509	-244.241989	-146.088211	145.949677	-197.241592	16.869764	67.645355	-217.541870
156	1.55000000	3.647163	1358.978394	95.027924	-10.670123	1371.258911	-276.367432	-23.753044	1446.106812	-75.890442	93.799583	1339.850952	-89.532043	-36.313301	1022.586548	193.101028	-109.471123	1062.524780	-370.670166	80.798109	803.380402	207.371666	-65.336765	806.772583	-394.184875	69.734222	909.973511	20.895351	77.461838	901.188416	-229.727585	-126.736786	950.056641	-111.115685	-128.724915	1209.401978	-94.039047	162.262848	1116.785034	-95.459091	-38.585686	545.498474	80.609894	-37.046043	448.428864	32.793549	-56.661461	286.807434	95.686485	-73.574753	65.577644	-25.558018	-124.575195	58.240173	-78.375694	57.261738	48.267834	-57.565491	100.512314	575.400757	-342.556610	125.232330	486.448975	-302.731628	41.887363	285.304047	-328.129395	-64.572495	125.721107	-243.105118	-116.054352	134.095657	-195.515427	50.865273	65.184250	-217.922211
